<?xml version="1.0" encoding="UTF-8"?>
<svg version="1.1" xmlns="http://www.w3.org/2000/svg" width="1254" height="1254">
<path d="M0 0 C413.82 0 827.64 0 1254 0 C1254 413.82 1254 827.64 1254 1254 C840.18 1254 426.36 1254 0 1254 C0 840.18 0 426.36 0 0 Z " fill="#FDFDFD" transform="translate(0,0)"/>
<path d="M0 0 C0.79019531 0.24878906 1.58039063 0.49757813 2.39453125 0.75390625 C16.20750636 5.37310794 28.81081881 12.74054716 40 22 C41.27230469 23.02673828 41.27230469 23.02673828 42.5703125 24.07421875 C62.49939883 40.97333428 77.82513995 67.90167941 80 94 C80.33 94.33 80.66 94.66 81 95 C81.21944593 99.32658851 81.18578872 103.65888219 81.18530273 107.99047852 C81.18747367 110.16117411 81.20557982 112.33134862 81.22460938 114.50195312 C81.22754644 115.89062327 81.22952914 117.27929582 81.23046875 118.66796875 C81.23457764 119.92891357 81.23868652 121.1898584 81.24291992 122.48901367 C80.99928748 126.01029819 80.2463975 128.71508815 79 132 C78.2533861 134.86136844 77.5664842 137.73333464 76.87890625 140.609375 C76.58886719 141.72828125 76.29882812 142.8471875 76 144 C75.80809082 144.74757568 75.61618164 145.49515137 75.41845703 146.26538086 C73.64409208 152.70359292 71.0240118 158.25856999 67.75 164.0625 C67.07130859 165.31256836 67.07130859 165.31256836 66.37890625 166.58789062 C63.09047949 172.50613766 59.30892097 177.78430259 55 183 C54.55092285 183.54503174 54.1018457 184.09006348 53.63916016 184.65161133 C34.70216702 207.09116321 7.85096262 220.71182879 -21.16796875 224.68359375 C-35.68155585 225.88196333 -49.8546941 225.5907315 -64 222 C-65.09054687 221.73316406 -66.18109375 221.46632813 -67.3046875 221.19140625 C-95.61013651 213.40567761 -120.3358776 193.58956788 -135.00024414 168.37792969 C-136.01329179 166.592673 -137.00723861 164.79661677 -138 163 C-138.49242187 162.11570312 -138.98484375 161.23140625 -139.4921875 160.3203125 C-150.71431299 139.06100644 -153.43106226 114.63620666 -150 91 C-149.505 90.505 -149.505 90.505 -149 90 C-148.69710919 88.40157623 -148.43366683 86.79563659 -148.1875 85.1875 C-143.09487785 56.85069534 -123.9021516 30.79835848 -100.55615234 14.43798828 C-87.47542179 5.79894432 -71.68010598 -1.52074472 -56 -3 C-55.67 -3.33 -55.34 -3.66 -55 -4 C-37.20284049 -7.49453342 -17.07623165 -5.90832981 0 0 Z " fill="#FEC248" transform="translate(658,491)"/>
<path d="M0 0 C3.88683547 1.59596984 6.36168405 4.10163686 9.31933594 7.04467773 C9.83685928 7.55709015 10.35438263 8.06950256 10.8875885 8.59744263 C12.59170848 10.28769474 14.28832981 11.98524195 15.984375 13.68359375 C17.16671088 14.86204254 18.34927021 16.04026717 19.53204346 17.21827698 C22.00671713 19.6854955 24.47748743 22.15654595 26.94580078 24.63012695 C30.11403634 27.80417092 33.29352147 30.9666746 36.47622299 34.12620449 C38.91946352 36.55474117 41.35577179 38.99013942 43.79010773 41.42759895 C44.95998902 42.59696584 46.13224509 43.76396178 47.30687714 44.92855644 C48.94457499 46.55396571 50.57250628 48.18856625 52.19824219 49.82592773 C53.59245392 51.21919533 53.59245392 51.21919533 55.01483154 52.64060974 C57 55 57 55 57 58 C55.42578125 59.61328125 55.42578125 59.61328125 53.3125 61.3125 C50.6337981 63.5408007 48.28414603 65.70128491 46.125 68.4375 C45.42375 69.283125 44.7225 70.12875 44 71 C43.34 71 42.68 71 42 71 C41.73506335 71.59011494 41.47012671 72.18022987 41.19716167 72.78822708 C39.95994667 75.07399909 38.68282566 76.56118687 36.84541321 78.3883667 C36.19647598 79.03860809 35.54753876 79.68884949 34.87893677 80.35879517 C34.16776703 81.06120331 33.45659729 81.76361145 32.72387695 82.48730469 C31.97405045 83.23581696 31.22422394 83.98432922 30.45167542 84.75552368 C27.96843723 87.23226457 25.47830251 89.70195529 22.98828125 92.171875 C21.25862156 93.89526232 19.52947733 95.61916711 17.80082703 97.34356689 C13.24238719 101.88869133 8.67842493 106.42822652 4.112854 110.96618652 C-3.1781261 118.21410183 -10.46251781 125.46862211 -17.74353981 132.72653961 C-20.28192406 135.25474983 -22.82372394 137.7794878 -25.3658905 140.30389404 C-26.93634701 141.867516 -28.50669079 143.4312512 -30.0769043 144.99511719 C-30.77795288 145.68942841 -31.47900146 146.38373962 -32.20129395 147.09909058 C-36.67744068 151.56500515 -40.87775924 156.20738547 -45 161 C-47.77839752 164.07612615 -50.62488943 167.07680826 -53.5 170.0625 C-54.58087891 171.2371582 -54.58087891 171.2371582 -55.68359375 172.43554688 C-61.06582238 177.97836641 -61.06582238 177.97836641 -65.7109375 178.0859375 C-66.79632812 177.72757813 -67.88171875 177.36921875 -69 177 C-70.30324219 176.66162109 -70.30324219 176.66162109 -71.6328125 176.31640625 C-72.45523438 176.06761719 -73.27765625 175.81882812 -74.125 175.5625 C-95.51206793 169.70617536 -117.62614319 170.86786725 -139.16601562 175.40576172 C-140.56883789 175.69990967 -140.56883789 175.69990967 -142 176 C-142.7022788 176.25846207 -143.40455759 176.51692413 -144.12811756 176.78321838 C-146.89637934 177.64750387 -149.09278457 178.07848535 -152 178 C-155.83227119 175.93522377 -158.57832058 172.95059238 -161.5612793 169.81689453 C-162.90722672 168.47598503 -162.90722672 168.47598503 -164.28036499 167.10798645 C-166.7355259 164.6605278 -169.1519044 162.17778295 -171.56282401 159.68683481 C-174.09927658 157.07884381 -176.66958119 154.50464671 -179.23628235 151.92648315 C-184.09716314 147.03347488 -188.92626278 142.11029027 -193.74497873 137.17579162 C-199.20298716 131.59001211 -204.69784598 126.04110019 -210.19511163 120.49399781 C-218.76300155 111.84525486 -227.31168575 103.17766282 -235.8269043 94.47705078 C-236.6556456 93.63305222 -237.4843869 92.78905365 -238.33824158 91.91947937 C-242.54357881 87.61293239 -246.62401196 83.24193164 -250.54331017 78.67274094 C-252.53779813 76.38243755 -254.66745827 74.2537983 -256.83984375 72.1328125 C-258.0918457 70.89917969 -258.0918457 70.89917969 -259.36914062 69.640625 C-261.10705275 67.93839624 -262.84668634 66.23792357 -264.58789062 64.5390625 C-265.41353516 63.724375 -266.23917969 62.9096875 -267.08984375 62.0703125 C-267.84128662 61.33570801 -268.59272949 60.60110352 -269.36694336 59.84423828 C-271 58 -271 58 -271 56 C-269.64660645 54.66661072 -269.64660645 54.66661072 -267.70507812 53.07397461 C-262.08047555 48.28690984 -256.92331349 43.04814988 -251.71875 37.81640625 C-250.65423228 36.75001915 -249.58949038 35.68385581 -248.52453613 34.61790466 C-245.74736167 31.83694593 -242.97320575 29.05299556 -240.19970703 26.26837158 C-237.35894362 23.4173052 -234.51528128 20.56913331 -231.671875 17.72070312 C-226.1117717 12.14993482 -220.55485982 6.57599681 -215 1 C-211.51970879 2.49368515 -209.27381652 4.47917418 -206.60870361 7.15078735 C-205.73654709 8.02019455 -204.86439056 8.88960175 -203.96580505 9.78535461 C-203.0073837 10.75085363 -202.04905867 11.71644827 -201.09082031 12.68212891 C-200.07589455 13.69761894 -199.06052792 14.71266852 -198.04475403 15.72731018 C-195.29058246 18.4809079 -192.54262121 21.24062883 -189.79572773 24.00148439 C-186.923203 26.88651097 -184.04501414 29.76587542 -181.16741943 32.64584351 C-175.72010053 38.09937878 -170.27789998 43.55799229 -164.83751655 49.01844537 C-158.64318262 55.2351334 -152.44316924 61.44614388 -146.24267054 67.65668225 C-133.48878056 80.43147778 -120.742046 93.21339139 -108 106 C-104.7896559 104.47293921 -102.66257672 102.88822827 -100.171875 100.33203125 C-99.45386719 99.60306641 -98.73585938 98.87410156 -97.99609375 98.12304688 C-96.88427734 96.97932617 -96.88427734 96.97932617 -95.75 95.8125 C-94.2890284 94.31649622 -92.82550062 92.82298431 -91.359375 91.33203125 C-90.71452148 90.66921143 -90.06966797 90.0063916 -89.40527344 89.32348633 C-87.43363954 87.41889439 -85.43080363 85.6342574 -83.35295105 83.84997559 C-79.04495464 80.08977608 -74.98383896 76.12492187 -70.94750977 72.0769043 C-70.18716934 71.31831619 -69.42682892 70.55972809 -68.64344788 69.77815247 C-66.15693025 67.29599968 -63.67404489 64.81025082 -61.19140625 62.32421875 C-59.45660258 60.59008924 -57.72165054 58.85610816 -55.98655701 57.12226868 C-52.36481784 53.50199884 -48.74488146 49.8799386 -45.1262207 46.2565918 C-40.48008063 41.60472925 -35.82943123 36.95740474 -31.17744541 32.31138897 C-27.60099416 28.73854219 -24.02691682 25.16332837 -20.4535656 21.58738136 C-18.73862109 19.87176859 -17.02293018 18.15690159 -15.30648994 16.44278526 C-12.91748048 14.05630318 -10.53167921 11.66666034 -8.14672852 9.27612305 C-7.43353455 8.56495331 -6.72034058 7.85378357 -5.98553467 7.12106323 C-5.33941727 6.47212601 -4.69329987 5.82318878 -4.02760315 5.15458679 C-3.46371667 4.59032329 -2.89983019 4.02605978 -2.31885624 3.44469738 C-0.89454001 2.01636827 -0.89454001 2.01636827 0 0 Z " fill="#01184F" transform="translate(730,283)"/>
<path d="M0 0 C1.68182766 0.40044415 1.68182766 0.40044415 3.39763165 0.80897808 C4.63384258 0.98557964 5.87005352 1.16218121 7.1437254 1.34413433 C10.56169415 1.83241558 13.9796629 2.32069683 17.39763165 2.80897808 C17.39763165 3.46897808 17.39763165 4.12897808 17.39763165 4.80897808 C22.07085629 4.88457151 26.7437058 4.93824056 31.41740704 4.973773 C32.99885048 4.98862449 34.5802546 5.00891113 36.16154766 5.03529644 C48.19698699 5.23071427 59.82981214 4.47377541 71.48793316 1.22679424 C75.57631639 0.08844556 78.34997835 -0.51923084 82.39763165 0.80897808 C84.91819 2.83734512 84.91819 2.83734512 87.63049603 5.56082439 C88.13296154 6.05987221 88.63542705 6.55892002 89.15311879 7.07309049 C90.83322225 8.74660892 92.49863575 10.43401575 94.16447735 12.12172222 C95.36631075 13.32468396 96.56902573 14.52676549 97.77255535 15.7280302 C101.03737098 18.99169724 104.28969895 22.26755853 107.53995061 25.54572129 C110.9387435 28.96950334 114.34885199 32.38197637 117.75778484 35.79565716 C124.21137132 42.26168067 130.65469287 48.73783387 137.09440345 55.21767372 C144.42626874 62.59423391 151.76948263 69.95945195 159.11367953 77.32373154 C174.22100664 92.47287949 189.31400009 107.63623932 204.39763165 122.80897808 C200.84486838 127.03477987 197.22226347 131.10822094 193.3102293 135.00990582 C192.84118176 135.47909939 192.37213421 135.94829296 191.8888731 136.43170452 C190.36550952 137.95438139 188.83865487 139.47350303 187.31169415 140.99257183 C186.24387819 142.05851917 185.17628543 143.12469013 184.10890484 144.19107342 C181.31970847 146.97647947 178.52752064 149.75886738 175.73466778 152.5406065 C172.87699589 155.38798873 170.02220662 158.23825794 167.1671629 161.08827496 C161.58011322 166.66464889 155.98989531 172.23783302 150.39763165 177.80897808 C146.86431408 176.30088936 144.59510999 174.25336988 141.89244366 171.54429913 C140.99504467 170.64964947 140.09764568 169.75499981 139.17305279 168.83323956 C138.1862959 167.83940495 137.1996353 166.84547474 136.21306133 165.85145855 C135.16857929 164.80641225 134.12365642 163.76180637 133.07832623 162.71760845 C130.24357919 159.88343535 127.4150419 157.04313709 124.5875721 154.20170641 C121.63096499 151.23259877 118.66869505 148.26915204 115.70701885 145.30510235 C110.10032856 139.69219531 104.49875613 134.07420938 98.89900041 128.45438492 C92.52329077 122.05632239 86.14190276 115.66393637 79.76002932 109.27202296 C66.63289772 96.12398494 53.51292096 82.96882837 40.39763165 69.80897808 C36.82024304 71.49248042 34.51019428 73.45402126 31.70842266 76.27113628 C30.7838879 77.19582211 29.85935314 78.12050793 28.90680218 79.07321453 C27.90494345 80.08529322 26.90319131 81.09747744 25.9015379 82.10975933 C24.86592011 83.14911167 23.8298566 84.18802006 22.79336834 85.22650433 C20.06680008 87.96069944 17.34628402 90.70083993 14.62700176 93.44227886 C11.87118921 96.21847494 9.10978627 98.98909737 6.34880352 101.76014996 C1.48013966 106.64793677 -3.38356637 111.54060177 -8.24371052 116.43686199 C-9.0220676 117.2196603 -9.80042469 118.00245861 -10.60236835 118.80897808 C-11.48525028 119.69693569 -12.36813221 120.5848933 -13.27776814 121.49975872 C-15.36841 123.57656772 -17.51181893 125.51753587 -19.73518085 127.44960308 C-27.42955766 134.33659812 -34.65477422 141.71255263 -41.94514179 149.02138042 C-44.4886018 151.57023535 -47.03740784 154.11365748 -49.58674335 156.65663433 C-51.21466855 158.28521975 -52.84228383 159.91411502 -54.46955585 161.54335308 C-55.60552708 162.67628796 -55.60552708 162.67628796 -56.76444721 163.8321104 C-60.27494651 167.35823499 -63.50029936 170.91402783 -66.60236835 174.80897808 C-69.60236835 176.80897808 -69.60236835 176.80897808 -71.58674335 176.66054058 C-74.11097815 175.5941003 -75.15121539 174.32280632 -76.85236835 172.18397808 C-79.10034208 169.36844663 -81.47908036 167.00744022 -84.21076679 164.67592144 C-88.6664593 160.80290898 -92.86333433 156.7095639 -97.03986835 152.53944683 C-97.80541035 151.77723324 -98.57095234 151.01501965 -99.35969257 150.22970867 C-100.96093064 148.63349596 -102.56085079 147.03596016 -104.15949726 145.43715191 C-106.61812429 142.98073631 -109.08467232 140.53245768 -111.5515871 138.08436871 C-113.1106688 136.52821679 -114.66927992 134.97159324 -116.22736835 133.41444683 C-116.96785419 132.68114651 -117.70834003 131.94784618 -118.47126484 131.19232464 C-119.14616962 130.51434322 -119.82107441 129.83636181 -120.51643085 129.1378355 C-121.11407246 128.54161892 -121.71171406 127.94540234 -122.32746601 127.33111858 C-123.60236835 125.80897808 -123.60236835 125.80897808 -123.60236835 123.80897808 C-124.26236835 123.80897808 -124.92236835 123.80897808 -125.60236835 123.80897808 C-124.03429817 120.0519713 -121.70223824 117.64236653 -118.85329914 114.76556683 C-118.36650297 114.27141728 -117.8797068 113.77726773 -117.37815922 113.26814395 C-115.74713 111.61510374 -114.10902833 109.96926266 -112.47077656 108.32338238 C-111.29921535 107.13928766 -110.12803636 105.95481468 -108.95721149 104.76999187 C-105.11309053 100.88385504 -101.25834894 97.00833829 -97.4031496 93.13319683 C-96.0764784 91.79842962 -94.74987634 90.46359369 -93.4233427 89.12868977 C-87.19373807 82.86100488 -80.95934169 76.59813528 -74.71900874 70.34113187 C-67.51239137 63.11494414 -60.32265184 55.87248996 -53.14671546 48.6158368 C-47.59970468 43.00857966 -42.03749953 37.41669262 -36.46360177 31.83616287 C-33.13408285 28.50193635 -29.8115403 25.16138754 -26.50485897 21.80449772 C-23.3957909 18.64898637 -20.2683619 15.51292351 -17.12570858 12.39087009 C-15.97508503 11.24124024 -14.83129643 10.08472292 -13.69493961 8.92098904 C-12.14323549 7.33401255 -10.56888873 5.77361809 -8.98635578 4.21747112 C-7.67254917 2.89649945 -7.67254917 2.89649945 -6.332201 1.54884148 C-3.60236835 -0.19102192 -3.60236835 -0.19102192 0 0 Z " fill="#01174E" transform="translate(583.6023683547974,742.1910219192505)"/>
<path d="M0 0 C3.86466333 1.58780359 6.30059155 4.05933229 9.22753906 7.00048828 C9.73530884 7.507966 10.24307861 8.01544373 10.76623535 8.53829956 C12.43748509 10.21093869 14.10154556 11.89054217 15.765625 13.5703125 C16.92532377 14.73374278 18.08546592 15.89673126 19.24603271 17.05929565 C22.29509352 20.115982 25.33809963 23.17862744 28.37988281 26.24255371 C31.48659913 29.36975165 34.59900545 32.49127507 37.7109375 35.61328125 C43.81287417 41.7366488 49.90842598 47.8663236 56 54 C54.60189478 56.92227352 53.34318409 58.85995155 50.91796875 61.0234375 C50.01401367 61.84328125 50.01401367 61.84328125 49.09179688 62.6796875 C48.46337891 63.23914063 47.83496094 63.79859375 47.1875 64.375 C43.6199649 67.56602408 40.1721233 70.66890983 37.17578125 74.4140625 C36.45777344 75.26742187 35.73976563 76.12078125 35 77 C34.34 77 33.68 77 33 77 C32.73446886 77.59057064 32.46893772 78.18114128 32.19536018 78.789608 C30.96532771 81.06411403 29.69987274 82.54666149 27.87423706 84.36627197 C27.23201202 85.01124634 26.58978699 85.6562207 25.92810059 86.32073975 C24.87290222 87.36515228 24.87290222 87.36515228 23.79638672 88.43066406 C23.0548233 89.17251953 22.31325989 89.914375 21.54922485 90.67871094 C19.09742329 93.12911939 16.63861395 95.572368 14.1796875 98.015625 C12.47817175 99.71341057 10.77709708 101.41163829 9.07644653 103.11029053 C4.59935194 107.57974916 0.11628362 112.04316914 -4.36804199 116.50537109 C-8.94298469 121.05985468 -13.51227048 125.62000567 -18.08203125 130.1796875 C-27.04914995 139.12535692 -36.02239708 148.0648529 -45 157 C-43.51261648 160.46181652 -41.55214559 162.68856289 -38.88717651 165.33314514 C-38.02618347 166.19255203 -37.16519043 167.05195892 -36.27810669 167.93740845 C-35.322041 168.88161233 -34.36589196 169.82573183 -33.40966797 170.76977539 C-32.40400864 171.76995792 -31.39881172 172.77060556 -30.39404297 173.77168274 C-28.23166914 175.92435276 -26.06627747 178.07392407 -23.89855576 180.22120857 C-20.47320182 183.61474965 -17.05601896 187.01643839 -13.64016724 190.41954041 C-5.15681621 198.86880922 3.33583873 207.30870982 11.83325195 215.74383545 C18.44110728 222.30328918 25.04578431 228.86586423 31.63997924 235.43905443 C35.03737892 238.82490743 38.44161489 242.20368791 41.85107064 245.57739842 C43.96665516 247.67384155 46.07600745 249.77646825 48.18363953 251.88090324 C49.16466527 252.85789763 50.14828631 253.83229369 51.13462448 254.80392456 C52.47698412 256.1269785 53.80936281 257.46013669 55.1411438 258.7938385 C55.89072924 259.53806092 56.64031467 260.28228334 57.41261482 261.04905796 C59 263 59 263 59 266 C56.96220398 267.90013123 56.96220398 267.90013123 54.1550293 270.04467773 C48.20327199 274.75823175 42.85874171 279.88358498 37.51953125 285.28515625 C36.57162601 286.23680594 35.62326763 287.18800448 34.67448425 288.13877869 C32.21566269 290.60512423 29.76291474 293.07741956 27.31152344 295.55114746 C24.79411349 298.08926249 22.27081101 300.62150558 19.74804688 303.15429688 C14.82635566 308.09723886 9.91107666 313.04651227 5 318 C1.31447056 316.4531895 -1.02415369 314.22010969 -3.83099365 311.40278625 C-4.3024589 310.93232429 -4.77392415 310.46186233 -5.25967622 309.97714394 C-6.83643734 308.40133449 -8.40594269 306.81849291 -9.97558594 305.2355957 C-11.10560101 304.103379 -12.23606484 302.97161002 -13.36694336 301.84025574 C-15.80126908 299.40299656 -18.23240381 296.9626135 -20.66112518 294.51976967 C-24.50634964 290.65226136 -28.35866554 286.79186936 -32.2119751 282.93241882 C-38.311824 276.82118459 -44.40698547 270.70529971 -50.50012231 264.58737391 C-61.39536745 253.64786725 -72.29608673 242.71382258 -83.20215058 231.78510159 C-87.02609156 227.9527851 -90.84720462 224.11767793 -94.66602278 220.28025687 C-97.05104382 217.88453254 -99.43814375 215.49088742 -101.82574463 213.09773445 C-102.92628291 211.99374862 -104.02594982 210.88889328 -105.12464142 209.78306961 C-110.42677875 204.44729811 -115.67704514 199.19553777 -121.64184952 194.58783245 C-123.47706959 192.44225137 -123.33233668 191.07540364 -123.125 188.3125 C-122.79106633 186.53346543 -122.41395608 184.76213395 -122 183 C-120.30481155 174.53640322 -119.64791643 166.37674422 -119.6875 157.75 C-119.68878906 156.57211914 -119.69007813 155.39423828 -119.69140625 154.18066406 C-119.77830655 146.27056411 -120.49964084 138.91816316 -122.34375 131.234375 C-123.0855995 127.57811675 -123.37120515 124.72693945 -123 121 C-121.31664197 118.68727838 -119.86258161 117.01419782 -117.8125 115.09375 C-117.0086084 114.30115784 -117.0086084 114.30115784 -116.18847656 113.49255371 C-114.47476002 111.81124877 -112.73810005 110.1560459 -111 108.5 C-109.86173276 107.38830205 -108.72499732 106.27503338 -107.58984375 105.16015625 C-103.24128526 100.91414922 -98.8706094 96.7339163 -94.26171875 92.76965332 C-90.21388795 89.2345649 -86.39281773 85.52140574 -82.609375 81.70703125 C-81.91880005 81.01499603 -81.2282251 80.32296082 -80.51672363 79.60995483 C-79.03155022 78.12100346 -77.54753208 76.63089898 -76.0645752 75.13973999 C-73.71180265 72.77409364 -71.35582412 70.41168172 -68.99902344 68.05004883 C-63.99652596 63.03617606 -58.99797137 58.018384 -54 53 C-48.20405163 47.18037992 -42.40645992 41.36241688 -36.60461426 35.54867554 C-34.29390529 33.23152763 -31.98625109 30.91136741 -29.67871094 28.59106445 C-28.24949865 27.15821656 -26.82014404 25.7255106 -25.390625 24.29296875 C-24.75870239 23.65587982 -24.12677979 23.01879089 -23.47570801 22.36239624 C-19.70881291 18.5950624 -15.82270201 15.02553768 -11.78009033 11.55523682 C-9.23435598 9.33106891 -6.87393032 6.96940158 -4.5 4.5625 C-3.6440625 3.69753906 -2.788125 2.83257812 -1.90625 1.94140625 C-0.96265625 0.98041016 -0.96265625 0.98041016 0 0 Z " fill="#01184F" transform="translate(891,443)"/>
<path d="M0 0 C1.39916992 1.41917419 1.39916992 1.41917419 3.04296875 3.41186523 C7.22818181 8.32885735 11.73467873 12.86039662 16.3125 17.41015625 C17.70414911 18.79956386 19.09579809 20.1889716 20.48744202 21.5783844 C21.96886643 23.05645966 23.45153224 24.53327903 24.93457031 26.00973511 C28.03990481 29.10143051 31.14131714 32.19704101 34.2421875 35.29321289 C40.82515175 41.86512489 47.41234722 48.43278827 54 55 C61.11445877 62.09238307 68.2281616 69.18551482 75.3369751 76.28355694 C78.4128292 79.35446138 81.49109653 82.42291891 84.57130432 85.48945618 C86.02854961 86.94100529 87.48461929 88.3937217 88.94018555 89.84695435 C90.70535279 91.60927847 92.47229476 93.36982779 94.24145508 95.12814331 C98.52391321 99.4102195 102.64612788 103.76276213 106.57565308 108.37216187 C108.28715896 110.32818431 110.12672002 112.02784069 112.125 113.6875 C115.24349043 116.33367537 118.15210146 119.06580151 121 122 C121.33 122.33 121.66 122.66 122 123 C121.93548847 124.77406707 121.79816721 126.54572644 121.625 128.3125 C121.53476562 129.27800781 121.44453125 130.24351562 121.3515625 131.23828125 C121 134 121 134 120.49072266 135.6862793 C119.78022834 139.036207 119.81683566 142.37166737 119.796875 145.78125 C119.79117493 146.5494104 119.78547485 147.3175708 119.77960205 148.10900879 C119.77015781 149.74306877 119.76362035 151.37714774 119.75976562 153.01123047 C119.75025016 155.43624791 119.71930733 157.8603447 119.6875 160.28515625 C119.68019168 161.88801263 119.67521792 163.49088044 119.671875 165.09375 C119.66641379 165.8532813 119.66095259 166.6128126 119.65532589 167.39535999 C119.7017459 171.71520027 120.02999872 175.5659498 121.22181702 179.72868347 C124.49369125 191.63849239 124.49369125 191.63849239 121.97569656 197.30516434 C118.12134893 203.13324176 112.92409328 207.74145636 107.82421875 212.45703125 C106.21990869 214.02089368 104.62059924 215.58990085 103.02607727 217.16374207 C98.83167427 221.27639927 94.57257275 225.31500131 90.2958374 229.34173584 C85.96929288 233.4400826 81.70990813 237.60697369 77.44335938 241.76757812 C71.18449023 247.8520757 64.90119144 253.90914092 58.56518555 259.91333008 C57.91598145 260.52999542 57.26677734 261.14666077 56.59790039 261.78201294 C53.40295164 264.79892495 50.16565121 267.74774889 46.84785461 270.6293335 C43.74532367 273.32558918 40.77288576 276.10552289 37.86914062 279.01733398 C36.94879028 279.93775986 36.02843994 280.85818573 35.0802002 281.8065033 C34.10549511 282.78631205 33.1308463 283.76617679 32.15625 284.74609375 C31.13657291 285.76764047 30.11667144 286.78896326 29.09655762 287.81007385 C26.43774939 290.47266437 23.78196042 293.13824599 21.12683105 295.80450439 C18.40671607 298.53492671 15.68369815 301.26245074 12.9609375 303.99023438 C7.63781137 309.324022 2.31787782 314.66097916 -3 320 C-8.79835292 315.18942819 -14.10725532 310.00767218 -19.40625 304.65625 C-20.28978149 303.76893188 -21.17331299 302.88161377 -22.08361816 301.96740723 C-25.36599742 298.67082167 -28.64382181 295.36972868 -31.92132568 292.06829834 C-35.1426435 288.82396417 -38.36782423 285.58350137 -41.59375 282.34375 C-42.43248657 281.49671509 -43.27122314 280.64968018 -44.13537598 279.77697754 C-48.59863641 275.29523569 -53.13152538 271.03910336 -58 267 C-56.50631485 263.51970879 -54.52082582 261.27381652 -51.84921265 258.60870361 C-50.97980545 257.73654709 -50.11039825 256.86439056 -49.21464539 255.96580505 C-48.24914637 255.0073837 -47.28355173 254.04905867 -46.31787109 253.09082031 C-45.30238106 252.07589455 -44.28733148 251.06052792 -43.27268982 250.04475403 C-40.5190921 247.29058246 -37.75937117 244.54262121 -34.99851561 241.79572773 C-32.11348903 238.923203 -29.23412458 236.04501414 -26.35415649 233.16741943 C-20.90062122 227.72010053 -15.44200771 222.27789998 -9.98155463 216.83751655 C-3.7648666 210.64318262 2.44614388 204.44316924 8.65668225 198.24267054 C21.43147778 185.48878056 34.21339139 172.742046 47 160 C45.58804829 156.79930987 43.90311374 154.65378766 41.43453979 152.18730164 C40.69449203 151.44305939 39.95444427 150.69881714 39.19197083 149.93202209 C38.37951401 149.12518478 37.56705719 148.31834747 36.72998047 147.48706055 C35.44671623 146.20094879 35.44671623 146.20094879 34.13752747 144.88885498 C31.79167112 142.53992867 29.44143088 140.19556234 27.08897543 137.85325599 C24.62170701 135.39478969 22.15973084 132.93103394 19.697052 130.4679718 C15.5559939 126.32785025 11.41108345 122.19161769 7.26367188 118.05786133 C2.48440172 113.29426984 -2.28966949 108.52551963 -7.06073868 103.75371522 C-12.15506368 98.65871147 -17.25320277 93.56753712 -22.35244513 88.47745538 C-23.81310168 87.0189191 -25.27305656 85.55968364 -26.73285294 84.10028648 C-29.47011552 81.36422701 -32.21164022 78.63246218 -34.95361328 75.90112305 C-36.15408043 74.69997612 -36.15408043 74.69997612 -37.37879944 73.4745636 C-41.56832516 69.30864295 -45.83570814 65.29975318 -50.32389641 61.456357 C-52.31253473 59.72844033 -54.17588239 57.90012251 -56 56 C-54.41270484 52.14768974 -51.95530575 49.70161109 -49.03125 46.77246094 C-48.52698486 46.26469116 -48.02271973 45.75692139 -47.50317383 45.23376465 C-45.84043464 43.56224561 -44.17051377 41.8981215 -42.5 40.234375 C-41.34150393 39.07453163 -40.18330488 37.9143915 -39.02539062 36.75396729 C-36.60089564 34.32652647 -34.17282638 31.90273366 -31.7421875 29.48144531 C-28.62136558 26.37204303 -25.50964136 23.25371488 -22.4005127 20.13262558 C-20.01243075 17.73733217 -17.61962507 15.34680356 -15.2253418 12.95771027 C-14.07557186 11.80927748 -12.92729398 10.65934895 -11.78051758 9.50792694 C-10.18137281 7.90372591 -8.5759975 6.30603808 -6.96875 4.70996094 C-6.05544922 3.79825134 -5.14214844 2.88654175 -4.20117188 1.94720459 C-2 0 -2 0 0 0 Z " fill="#01174E" transform="translate(355,442)"/>
<path d="M0 0 C14.38505747 10.13725876 24.66552375 24.73071792 28.73828125 41.9296875 C31.81522881 60.04948978 29.61535617 78.14831668 19.73828125 93.9296875 C10.27988952 107.18928195 -0.69070788 115.13218569 -15.26171875 121.9296875 C-15.87619873 122.23060303 -16.49067871 122.53151855 -17.1237793 122.84155273 C-23.24095966 125.52883669 -29.35436727 125.42640851 -35.94921875 125.3671875 C-37.68751953 125.35691528 -37.68751953 125.35691528 -39.4609375 125.34643555 C-47.75291427 125.19061081 -54.65381164 124.41474674 -62.26171875 120.9296875 C-63.1434375 120.55585938 -64.02515625 120.18203125 -64.93359375 119.796875 C-71.0485345 116.99882636 -76.20559811 113.33758754 -81.26171875 108.9296875 C-82.50115234 107.85074219 -82.50115234 107.85074219 -83.765625 106.75 C-94.13371745 97.09421925 -99.91742091 85.66587127 -103.26171875 71.9296875 C-103.45378906 71.1665625 -103.64585937 70.4034375 -103.84375 69.6171875 C-106.74479601 50.96373279 -102.93780716 32.76381828 -92.37890625 17.14453125 C-81.95761694 3.49559566 -69.76849592 -4.70876569 -53.26171875 -9.0703125 C-52.64699707 -9.2453833 -52.03227539 -9.4204541 -51.39892578 -9.60083008 C-33.75412103 -13.47688212 -15.06153723 -9.49753227 0 0 Z " fill="#01184F" transform="translate(660.26171875,180.0703125)"/>
<path d="M0 0 C0.87527344 0.42152344 1.75054688 0.84304688 2.65234375 1.27734375 C9.78342008 4.88788871 15.35316182 9.37198461 21 15 C21.7115625 15.68835938 22.423125 16.37671875 23.15625 17.0859375 C35.87054783 30.24034564 39.5222692 46.66636588 39.41992188 64.42504883 C38.97502731 81.92851274 32.1123413 96.91636341 19.81640625 109.34375 C5.58071055 122.76992625 -12.09182091 128.55040144 -31.40429688 128.4921875 C-48.7309239 127.96753566 -64.64658607 119.98132315 -77 108 C-85 98.43037975 -85 98.43037975 -85 95 C-85.66 95 -86.32 95 -87 95 C-94.78904243 75.03751704 -98.97871242 56.15138582 -90.5234375 35.37109375 C-82.78292184 18.43018844 -69.18437902 4.2970042 -51.55859375 -2.28515625 C-34.53693956 -7.68793386 -16.15477305 -8.28239634 0 0 Z " fill="#01184F" transform="translate(1024,538)"/>
<path d="M0 0 C3.57172045 2.79396718 6.81474467 5.7758323 10 9 C10.70769531 9.68578125 11.41539062 10.3715625 12.14453125 11.078125 C25.20493032 24.56304947 28.52463829 41.41055201 28.41992188 59.54394531 C27.9729934 77.00280515 20.04694471 91.48320565 8 104 C-7.70482135 117.96473595 -25.99687452 123.3809512 -46.69140625 122.20703125 C-63.56573382 120.69376668 -79.31713186 111.78022904 -90.47265625 99.21484375 C-100.46175559 86.55753758 -106.60698225 72.05400789 -106.5 55.875 C-106.49500488 54.87307617 -106.49000977 53.87115234 -106.48486328 52.83886719 C-106.27582653 43.83442881 -104.52453463 36.24891083 -101 28 C-100.5771875 27.01 -100.154375 26.02 -99.71875 25 C-92.7862408 10.81253931 -78.72425154 -2.35536878 -64 -8 C-41.71361627 -15.54422535 -19.56691923 -13.37665751 0 0 Z " fill="#01184E" transform="translate(289,544)"/>
<path d="M0 0 C0.97775391 -0.020625 1.95550781 -0.04125 2.96289062 -0.0625 C12.87671485 -0.11491943 21.69185145 2.09202136 30.375 6.875 C31.00994385 7.22054932 31.6448877 7.56609863 32.29907227 7.92211914 C38.21776161 11.26792162 43.07774141 15.37252706 47.8125 20.25 C48.51890625 20.94738281 49.2253125 21.64476562 49.953125 22.36328125 C63.19255755 36.18383393 67.37588048 52.75066057 67.08984375 71.28125 C66.366651 90.01949807 56.85788686 105.6047787 43.75 118.4375 C28.73350555 131.32776515 9.09295406 135.70111975 -10.1875 134.25 C-14.03673401 133.6169327 -17.53465352 132.60073102 -21.1875 131.25 C-21.98929688 130.99476563 -22.79109375 130.73953125 -23.6171875 130.4765625 C-40.25211709 124.68356785 -53.13584155 111.60432541 -61.1875 96.25 C-68.69659336 79.72406527 -70.10461066 60.59225138 -63.87133789 43.44189453 C-56.78435278 25.613228 -42.62731483 11.58357607 -25.1328125 3.91015625 C-16.71257174 0.70407542 -8.94652913 0.04626518 0 0 Z " fill="#01184F" transform="translate(623.1875,894.75)"/>
<path d="M0 0 C5.02307581 0.37734101 7.54087421 2.99486999 10.8918457 6.43774414 C11.45828293 7.00359726 12.02472015 7.56945038 12.60832214 8.15245056 C14.47378278 10.02069259 16.32468423 11.90269045 18.17578125 13.78515625 C19.46813459 15.08497173 20.7613753 16.3839055 22.0554657 17.68199158 C25.45587 21.09765405 28.84409029 24.52515854 32.22991943 27.95526123 C35.68832396 31.45461401 39.15810732 34.94264331 42.62695312 38.43164062 C49.42915879 45.27672047 56.21854765 52.13436352 63 59 C62.34 59.66 61.68 60.32 61 61 C40.66666667 40.66666667 20.33333333 20.33333333 0 0 Z " fill="#182156" transform="translate(661,742)"/>
<path d="M0 0 C0.66 0.33 1.32 0.66 2 1 C-1.33507724 4.40928308 -4.67992667 7.80855584 -8.03417969 11.19897461 C-9.17363432 12.3535074 -10.31038084 13.51071953 -11.44433594 14.6706543 C-13.07561424 16.33835781 -14.71641804 17.99615436 -16.359375 19.65234375 C-16.86370056 20.17215317 -17.36802612 20.69196259 -17.88763428 21.2275238 C-20.59369936 23.93486582 -22.36907071 25.09226768 -26 26 C-27.98864103 27.73375732 -29.80978938 29.46061013 -31.640625 31.34765625 C-32.43119293 32.14459145 -32.43119293 32.14459145 -33.23773193 32.95762634 C-34.91567187 34.65232825 -36.58286728 36.35717217 -38.25 38.0625 C-39.38732745 39.21487745 -40.52534066 40.36657852 -41.6640625 41.51757812 C-44.45071992 44.33727184 -47.22778792 47.16610588 -50 50 C-50.66 49.34 -51.32 48.68 -52 48 C-51.52890808 47.60118622 -51.05781616 47.20237244 -50.57244873 46.79147339 C-45.05476247 42.0506093 -39.9234322 37.00852197 -34.828125 31.8203125 C-33.09533754 30.07002985 -31.36225612 28.32003818 -29.62890625 26.5703125 C-26.92427997 23.83458722 -24.22207065 21.09659523 -21.52490234 18.35351562 C-18.90348656 15.68991832 -16.27283816 13.03573413 -13.640625 10.3828125 C-12.83328918 9.55685577 -12.02595337 8.73089905 -11.19415283 7.87991333 C-10.43946716 7.12177338 -9.68478149 6.36363342 -8.90722656 5.58251953 C-8.24740784 4.91302277 -7.58758911 4.243526 -6.90777588 3.55374146 C-4.88449332 1.90592841 -3.52836649 1.47081713 -1 1 C-0.67 0.67 -0.34 0.34 0 0 Z " fill="#D5DAE5" transform="translate(946,713)"/>
<path d="M0 0 C0.66 0.99 1.32 1.98 2 3 C-10.54 15.54 -23.08 28.08 -36 41 C-36.66 40.67 -37.32 40.34 -38 40 C-36.71480435 37.13302508 -35.42870746 35.02392288 -33 33 C-32.34 33 -31.68 33 -31 33 C-30.63068359 32.12214844 -30.63068359 32.12214844 -30.25390625 31.2265625 C-28.80626232 28.65597983 -27.20757518 27.24544307 -24.9375 25.375 C-22.02124288 23.04514448 -22.02124288 23.04514448 -20 20 C-19.34 20 -18.68 20 -18 20 C-18 19.34 -18 18.68 -18 18 C-17.34 18 -16.68 18 -16 18 C-15.67 17.01 -15.34 16.02 -15 15 C-14.34 15 -13.68 15 -13 15 C-12.78601563 14.45859375 -12.57203125 13.9171875 -12.3515625 13.359375 C-10.51922057 10.1607203 -8.00203394 7.79035516 -5.375 5.25 C-4.859375 4.74339844 -4.34375 4.23679687 -3.8125 3.71484375 C-2.54616661 2.47196098 -1.2736856 1.23534724 0 0 Z " fill="#DADEE6" transform="translate(574,744)"/>
<path d="M0 0 C0.99 0.33 1.98 0.66 3 1 C0.08089124 4.61413466 -2.83962425 7.98268349 -6.4375 10.9375 C-9.72150635 13.65256666 -12.40641437 16.66702383 -15.16796875 19.90234375 C-17.13138692 22.15043662 -19.16250377 24.30420861 -21.25 26.4375 C-21.89453125 27.09621094 -22.5390625 27.75492187 -23.203125 28.43359375 C-25 30 -25 30 -28 31 C-28 28 -28 28 -25.4296875 25.08911133 C-24.25246159 23.91236127 -23.06695862 22.74385576 -21.875 21.58203125 C-21.25351074 20.96478683 -20.63202148 20.34754242 -19.99169922 19.71159363 C-18.00138167 17.73809421 -16.00089605 15.77526775 -14 13.8125 C-12.65035991 12.47790263 -11.30139264 11.14262449 -9.953125 9.80664062 C-6.64317773 6.52980425 -3.32407262 3.26250403 0 0 Z " fill="#091B50" transform="translate(515,284)"/>
<path d="M0 0 C0.66 0.33 1.32 0.66 2 1 C1.47113167 5.08335544 -0.59629038 6.94353018 -3.47265625 9.765625 C-4.37177734 10.65507813 -5.27089844 11.54453125 -6.19726562 12.4609375 C-7.14279297 13.38132812 -8.08832031 14.30171875 -9.0625 15.25 C-10.02216973 16.19461673 -10.98116229 17.13992195 -11.93945312 18.0859375 C-14.28638828 20.39749172 -16.64003391 22.7017634 -19 25 C-19.99 24.01 -20.98 23.02 -22 22 C-21.01 21.67 -20.02 21.34 -19 21 C-18.67 20.01 -18.34 19.02 -18 18 C-16.35 17.67 -14.7 17.34 -13 17 C-13.33 16.01 -13.66 15.02 -14 14 C-12.90398831 12.99106869 -11.79786082 11.99311775 -10.6875 11 C-10.07261719 10.443125 -9.45773437 9.88625 -8.82421875 9.3125 C-7 8 -7 8 -4 8 C-4 6.68 -4 5.36 -4 4 C-2 1.75 -2 1.75 0 0 Z " fill="#192A56" transform="translate(757,891)"/>
<path d="M0 0 C0.99 0.66 1.98 1.32 3 2 C2.26394531 2.59167969 1.52789063 3.18335938 0.76953125 3.79296875 C-0.20628906 4.58316406 -1.18210937 5.37335937 -2.1875 6.1875 C-3.63189453 7.35345703 -3.63189453 7.35345703 -5.10546875 8.54296875 C-8.63884133 11.54228232 -11.94983604 14.56088642 -14.6875 18.3125 C-15.120625 18.869375 -15.55375 19.42625 -16 20 C-16.66 20 -17.32 20 -18 20 C-18 21.32 -18 22.64 -18 24 C-18.66 24 -19.32 24 -20 24 C-20.33 24.99 -20.66 25.98 -21 27 C-21.66 27 -22.32 27 -23 27 C-19.04046877 15.86507461 -10.00609654 6.10127838 0 0 Z " fill="#14255B" transform="translate(959,543)"/>
<path d="M0 0 C0 3.99833488 -1.35814212 4.81158018 -4.0625 7.6875 C-4.88105469 8.57050781 -5.69960938 9.45351563 -6.54296875 10.36328125 C-7.75919922 11.66845703 -7.75919922 11.66845703 -9 13 C-10.29870155 14.45207202 -11.59118668 15.9097484 -12.875 17.375 C-13.40867187 17.98085938 -13.94234375 18.58671875 -14.4921875 19.2109375 C-16.07279826 21.0112143 -16.07279826 21.0112143 -17.4453125 23.2265625 C-17.95835937 23.81179688 -18.47140625 24.39703125 -19 25 C-20.32 25 -21.64 25 -23 25 C-21.43717018 21.23396131 -19.0936525 18.86360849 -16.2109375 16.015625 C-15.74765045 15.55516785 -15.2843634 15.09471069 -14.80703735 14.62030029 C-13.33434102 13.15874922 -11.85482597 11.70432832 -10.375 10.25 C-9.37193678 9.25697389 -8.36932743 8.26348911 -7.3671875 7.26953125 C-4.91669165 4.84102059 -2.4600333 2.41885325 0 0 Z " fill="#142251" transform="translate(320,684)"/>
<path d="M0 0 C0.33 0.99 0.66 1.98 1 3 C-0.5159375 4.2375 -0.5159375 4.2375 -2.0625 5.5 C-5.44019666 8.38935497 -8.2875253 11.53077282 -11.171875 14.90234375 C-13.12199202 17.13997803 -15.12526869 19.3027087 -17.1875 21.4375 C-17.82042969 22.09621094 -18.45335937 22.75492187 -19.10546875 23.43359375 C-21.13813275 25.11420873 -22.4673277 25.4587633 -25 26 C-20.03805145 20.00499003 -14.6523376 14.53572963 -9.125 9.0625 C-8.24585938 8.18787109 -7.36671875 7.31324219 -6.4609375 6.41210938 C-4.3095654 4.27242952 -2.15588208 2.13513403 0 0 Z " fill="#182556" transform="translate(852,481)"/>
<path d="M0 0 C0 3.84574908 -1.00359628 5.85399094 -3.51220703 8.73925781 C-4.37628174 9.58762207 -4.37628174 9.58762207 -5.2578125 10.453125 C-5.88300781 11.071875 -6.50820313 11.690625 -7.15234375 12.328125 C-7.80332031 12.96234375 -8.45429687 13.5965625 -9.125 14.25 C-9.78371094 14.8996875 -10.44242188 15.549375 -11.12109375 16.21875 C-12.74296643 17.81711727 -14.3693281 19.41061897 -16 21 C-16.66 20.01 -17.32 19.02 -18 18 C-12.06 12.06 -6.12 6.12 0 0 Z " fill="#1B285A" transform="translate(786,546)"/>
<path d="M0 0 C0 5.12389756 -3.65894387 8.33801909 -7 12 C-16.760181 21 -16.760181 21 -21 21 C-14.07 14.07 -7.14 7.14 0 0 Z " fill="#1A2B5F" transform="translate(489,833)"/>
<path d="M0 0 C1.65 0 3.3 0 5 0 C3.41332422 3.90285767 0.86649519 6.33520982 -2.125 9.25 C-3.03507813 10.14203125 -3.94515625 11.0340625 -4.8828125 11.953125 C-5.58148437 12.62859375 -6.28015625 13.3040625 -7 14 C-7.66 13.67 -8.32 13.34 -9 13 C-8.1875 10.5625 -8.1875 10.5625 -7 8 C-6.01 7.67 -5.02 7.34 -4 7 C-4 6.34 -4 5.68 -4 5 C-3.01 5 -2.02 5 -1 5 C-0.67 3.35 -0.34 1.7 0 0 Z " fill="#1A2B58" transform="translate(909,530)"/>
<path d="M0 0 C0.33 0.99 0.66 1.98 1 3 C-2.68974525 8.86606956 -8.35965043 13.13233172 -14 17 C-13.4194679 13.69881206 -12.45131901 12.08865924 -10.05859375 9.765625 C-9.18364258 8.90517578 -9.18364258 8.90517578 -8.29101562 8.02734375 C-7.67935547 7.44082031 -7.06769531 6.85429687 -6.4375 6.25 C-5.82197266 5.64800781 -5.20644531 5.04601562 -4.57226562 4.42578125 C-3.05485187 2.94365619 -1.52829404 1.4709033 0 0 Z " fill="#EFF1F6" transform="translate(751,376)"/>
<path d="M0 0 C0.66 0.66 1.32 1.32 2 2 C-2.62 6.62 -7.24 11.24 -12 16 C-12.66 15.34 -13.32 14.68 -14 14 C-12.60919892 12.41224451 -11.21211596 10.82999061 -9.8125 9.25 C-8.64654297 7.92742187 -8.64654297 7.92742187 -7.45703125 6.578125 C-5.11544754 4.12113732 -2.69841735 2.05137234 0 0 Z " fill="#122353" transform="translate(583,182)"/>
<path d="M0 0 C-1.47721422 3.45201639 -3.43794001 5.64961936 -6.125 8.25 C-6.84945312 8.95640625 -7.57390625 9.6628125 -8.3203125 10.390625 C-8.87460937 10.92171875 -9.42890625 11.4528125 -10 12 C-10.99 11.34 -11.98 10.68 -13 10 C-12.67 9.34 -12.34 8.68 -12 8 C-11.01 8 -10.02 8 -9 8 C-8.9175 7.4225 -8.835 6.845 -8.75 6.25 C-7.15411766 1.46235297 -4.94719701 0 0 0 Z " fill="#132551" transform="translate(784,868)"/>
<path d="M0 0 C0.66 0.66 1.32 1.32 2 2 C1.57122304 6.21530027 0.48525242 10.27509922 -0.5625 14.375 C-0.83191406 15.43460938 -1.10132813 16.49421875 -1.37890625 17.5859375 C-1.58386719 18.38257813 -1.78882813 19.17921875 -2 20 C-4.38052192 15.84557564 -4.03345112 12.56030811 -3 8 C-2.11649705 5.26579086 -1.09328536 2.66191218 0 0 Z " fill="#1E2E62" transform="translate(561,209)"/>
<path d="M0 0 C0.99 0.33 1.98 0.66 3 1 C2.01 1.33 1.02 1.66 0 2 C-0.27585937 2.56203125 -0.55171875 3.1240625 -0.8359375 3.703125 C-2.48790914 6.96272005 -5.0285777 9.23924646 -7.625 11.75 C-8.140625 12.25660156 -8.65625 12.76320313 -9.1875 13.28515625 C-10.45383339 14.52803902 -11.7263144 15.76465276 -13 17 C-13.33 16.01 -13.66 15.02 -14 14 C-9.38 9.38 -4.76 4.76 0 0 Z " fill="#253667" transform="translate(772,352)"/>
<path d="M0 0 C0.99 0.66 1.98 1.32 3 2 C2.52949219 2.37511719 2.05898438 2.75023437 1.57421875 3.13671875 C-2.12859562 6.18023284 -4.60220262 8.80385459 -7 13 C-7.99 13.33 -8.98 13.66 -10 14 C-10 10 -10 10 -7.8125 7.421875 C-6.884375 6.54015625 -5.95625 5.6584375 -5 4.75 C-4.071875 3.85796875 -3.14375 2.9659375 -2.1875 2.046875 C-1.465625 1.37140625 -0.74375 0.6959375 0 0 Z " fill="#132458" transform="translate(310,485)"/>
<path d="M0 0 C0.66 0.33 1.32 0.66 2 1 C-5.14285714 10.80952381 -5.14285714 10.80952381 -8 13 C-9.32 12.67 -10.64 12.34 -12 12 C-8.04 8.04 -4.08 4.08 0 0 Z " fill="#0E1E50" transform="translate(582,908)"/>
<path d="M0 0 C0.33 0 0.66 0 1 0 C1 7.59 1 15.18 1 23 C0.67 23 0.34 23 0 23 C-0.33 21.35 -0.66 19.7 -1 18 C-1.33 18 -1.66 18 -2 18 C-3.38458877 11.20292787 -2.35001386 6.47913427 0 0 Z " fill="#17234C" transform="translate(316,589)"/>
<path d="M0 0 C0.66 0.33 1.32 0.66 2 1 C0.78070272 2.30098717 -0.45092452 3.59042437 -1.6875 4.875 C-2.37199219 5.59429688 -3.05648437 6.31359375 -3.76171875 7.0546875 C-7.02403246 9.8899968 -9.68343194 11 -14 11 C-12.59290434 9.51172574 -11.17393799 8.03466815 -9.75 6.5625 C-8.96109375 5.73878906 -8.1721875 4.91507813 -7.359375 4.06640625 C-5.05671489 2.04967248 -3.94042546 1.46188099 -1 1 C-0.67 0.67 -0.34 0.34 0 0 Z " fill="#DBDFE8" transform="translate(946,713)"/>
<path d="M0 0 C5.04806914 0.35991718 7.52239866 3.04398041 10.8125 6.5625 C11.31458984 7.08263672 11.81667969 7.60277344 12.33398438 8.13867188 C13.56529127 9.4168857 14.7839407 10.70727147 16 12 C15.34 12.66 14.68 13.32 14 14 C9.33333333 9.33333333 4.66666667 4.66666667 0 0 Z " fill="#1F285C" transform="translate(661,742)"/>
<path d="M0 0 C-4.9748792 3.31658613 -11.03568353 4.38479461 -17 4 C-17.33 3.01 -17.66 2.02 -18 1 C-11.69661213 -0.3792223 -6.3503077 -1.41117949 0 0 Z " fill="#16285D" transform="translate(660,745)"/>
<path d="M0 0 C0.185625 0.9590625 0.185625 0.9590625 0.375 1.9375 C0.684375 2.9584375 0.684375 2.9584375 1 4 C1.66 4.33 2.32 4.66 3 5 C2.74337755 6.44010481 2.46909179 7.8770687 2.1875 9.3125 C2.03667969 10.11300781 1.88585937 10.91351562 1.73046875 11.73828125 C0.92427764 14.23445587 -0.02052002 15.32422106 -2 17 C-1.4618629 11.30948637 -0.8599867 5.65134116 0 0 Z " fill="#16275C" transform="translate(770,619)"/>
<path d="M0 0 C0.99 0 1.98 0 3 0 C2.34 4.95 1.68 9.9 1 15 C0.01 15 -0.98 15 -2 15 C-2.19392201 9.47322267 -1.7479503 5.24385089 0 0 Z " fill="#293B6E" transform="translate(558,943)"/>
<path d="M0 0 C0.66 0.99 1.32 1.98 2 3 C0.625 5 0.625 5 -1 7 C-1.66 7 -2.32 7 -3 7 C-3 8.32 -3 9.64 -3 11 C-3.66 11 -4.32 11 -5 11 C-5.33 11.99 -5.66 12.98 -6 14 C-6.66 14 -7.32 14 -8 14 C-6.6744419 10.37723685 -5.05653045 7.36494652 -2.875 4.1875 C-2.33617187 3.39730469 -1.79734375 2.60710938 -1.2421875 1.79296875 C-0.83226562 1.20128906 -0.42234375 0.60960937 0 0 Z " fill="#1E2C5C" transform="translate(944,556)"/>
<path d="M0 0 C0.33 0.66 0.66 1.32 1 2 C1.99 2.33 2.98 2.66 4 3 C8 9.05714286 8 9.05714286 8 14 C4.31534095 10.71012585 2.22105818 7.36279286 0 3 C0 2.01 0 1.02 0 0 Z " fill="#122254" transform="translate(562,988)"/>
<path d="M0 0 C0.33 0.99 0.66 1.98 1 3 C-2.3 6.3 -5.6 9.6 -9 13 C-9.66 12.34 -10.32 11.68 -11 11 C-7.37 7.37 -3.74 3.74 0 0 Z " fill="#0C1D4F" transform="translate(344,660)"/>
<path d="M0 0 C0 4.09036452 -2.11143417 5.77890652 -4.75 8.625 C-5.63171875 9.60726563 -6.5134375 10.58953125 -7.421875 11.6015625 C-9.80142246 13.81526272 -10.83982991 14.68988985 -14 15 C-9.59156563 9.70987876 -4.92440206 4.81191572 0 0 Z " fill="#152354" transform="translate(325,470)"/>
<path d="M0 0 C4.94515667 2.62711448 8.87775489 6.26645294 13 10 C12.34 10.66 11.68 11.32 11 12 C7 8.66666667 3 5.33333333 -1 2 C-0.67 1.34 -0.34 0.68 0 0 Z " fill="#152257" transform="translate(660,181)"/>
<path d="M0 0 C3.52953718 1.17651239 3.78736494 1.88377544 5.5625 5 C7.21374548 8.08502827 7.21374548 8.08502827 10 10 C9.67 10.99 9.34 11.98 9 13 C5.74673521 9.83710367 2.63274608 6.70534633 0 3 C0 2.01 0 1.02 0 0 Z " fill="#15275C" transform="translate(940,634)"/>
<path d="M0 0 C0.66 0 1.32 0 2 0 C3.6442351 4.93270529 2.18615592 7.54024193 0 12 C-0.66 12 -1.32 12 -2 12 C-2.21278058 7.53160785 -1.59138085 4.17737474 0 0 Z " fill="#0A1A49" transform="translate(684,254)"/>
<path d="M0 0 C-4.455 3.465 -4.455 3.465 -9 7 C-9.99 6.34 -10.98 5.68 -12 5 C-10.76265016 3.96386967 -9.50955363 2.94652198 -8.25 1.9375 C-7.55390625 1.36902344 -6.8578125 0.80054688 -6.140625 0.21484375 C-4 -1 -4 -1 0 0 Z " fill="#FDC655" transform="translate(561,507)"/>
<path d="M0 0 C0.66 0 1.32 0 2 0 C2.33 0.99 2.66 1.98 3 3 C-0.32052768 5.33946269 -3.01532244 7.17707746 -7 8 C-6.02133662 6.85373678 -5.04205413 5.70800212 -4.0625 4.5625 C-3.51722656 3.92441406 -2.97195313 3.28632813 -2.41015625 2.62890625 C-1.63204305 1.73008851 -0.84063472 0.84063472 0 0 Z " fill="#192859" transform="translate(353,442)"/>
<path d="M0 0 C6.75 3.75 6.75 3.75 9 6 C8.67 6.99 8.34 7.98 8 9 C2.25 5.25 2.25 5.25 0 3 C0 2.01 0 1.02 0 0 Z " fill="#152658" transform="translate(578,285)"/>
<path d="M0 0 C2.31 1.98 4.62 3.96 7 6 C6.67 6.99 6.34 7.98 6 9 C3.69 7.02 1.38 5.04 -1 3 C-0.67 2.01 -0.34 1.02 0 0 Z " fill="#1E2E5A" transform="translate(496,900)"/>
<path d="M0 0 C0.99 0.33 1.98 0.66 3 1 C2.04578192 2.14926266 1.08647955 3.29430541 0.125 4.4375 C-0.40867187 5.07558594 -0.94234375 5.71367188 -1.4921875 6.37109375 C-3 8 -3 8 -5 9 C-4.67 7.35 -4.34 5.7 -4 4 C-3.34 4 -2.68 4 -2 4 C-2 3.34 -2 2.68 -2 2 C-1.34 2 -0.68 2 0 2 C0 1.34 0 0.68 0 0 Z " fill="#091745" transform="translate(530,898)"/>
<path d="M0 0 C6.57142857 5.14285714 6.57142857 5.14285714 8 9 C7.01 9 6.02 9 5 9 C3.39453125 7.25 3.39453125 7.25 1.8125 5 C1.28269531 4.2575 0.75289062 3.515 0.20703125 2.75 C-0.19128906 2.1725 -0.58960938 1.595 -1 1 C-0.67 0.67 -0.34 0.34 0 0 Z " fill="#14245A" transform="translate(671,916)"/>
<path d="M0 0 C0.99 0 1.98 0 3 0 C2.67 3.3 2.34 6.6 2 10 C1.67 9.01 1.34 8.02 1 7 C0.34 6.67 -0.32 6.34 -1 6 C-1.042721 4.33388095 -1.04063832 2.66617115 -1 1 C-0.67 0.67 -0.34 0.34 0 0 Z " fill="#132250" transform="translate(474,566)"/>
<path d="M0 0 C0.33 0.99 0.66 1.98 1 3 C-1.64 5.31 -4.28 7.62 -7 10 C-7.66 9.67 -8.32 9.34 -9 9 C-6.03 6.03 -3.06 3.06 0 0 Z " fill="#223361" transform="translate(852,481)"/>
<path d="M0 0 C0 3.49889647 -0.54120332 4.0553603 -2.75 6.625 C-3.26046875 7.23601562 -3.7709375 7.84703125 -4.296875 8.4765625 C-6.19607419 10.17538747 -7.51275949 10.5998787 -10 11 C-6.79239749 7.19364503 -3.59253891 3.45436433 0 0 Z " fill="#192554" transform="translate(345,450)"/>
<path d="M0 0 C0.66 0.33 1.32 0.66 2 1 C0.92492371 2.29854721 -0.16043736 3.58858361 -1.25 4.875 C-1.85328125 5.59429687 -2.4565625 6.31359375 -3.078125 7.0546875 C-4.97087634 8.97052118 -6.53657727 9.96449045 -9 11 C-7.59155282 7.78475695 -5.89655214 5.67816132 -3.375 3.25 C-2.74335937 2.63640625 -2.11171875 2.0228125 -1.4609375 1.390625 C-0.73777344 0.70226562 -0.73777344 0.70226562 0 0 Z " fill="#071448" transform="translate(716,298)"/>
<path d="M0 0 C3.16115776 1.36983503 3.9927092 1.9890638 6 5 C5.67 5.66 5.34 6.32 5 7 C4.01 6.67 3.02 6.34 2 6 C2 5.34 2 4.68 2 4 C1.34 4 0.68 4 0 4 C0 2.68 0 1.36 0 0 Z " fill="#14214F" transform="translate(929,687)"/>
<path d="M0 0 C0.66 0.66 1.32 1.32 2 2 C-0.31 4.31 -2.62 6.62 -5 9 C-5.66 8.34 -6.32 7.68 -7 7 C-4.69 4.69 -2.38 2.38 0 0 Z " fill="#0A1E50" transform="translate(360,644)"/>
<path d="M0 0 C3.78611227 0.54087318 5.55400767 2.11722332 8 5 C8 5.66 8 6.32 8 7 C7.01 7.33 6.02 7.66 5 8 C5 6.68 5 5.36 5 4 C4.01 4 3.02 4 2 4 C2 3.34 2 2.68 2 2 C1.34 2 0.68 2 0 2 C0 1.34 0 0.68 0 0 Z " fill="#0A1645" transform="translate(295,552)"/>
<path d="M0 0 C4.455 2.97 4.455 2.97 9 6 C8.34 6.66 7.68 7.32 7 8 C5.82512964 7.24172908 4.66027408 6.46792245 3.5 5.6875 C2.52546875 5.04361328 2.52546875 5.04361328 1.53125 4.38671875 C1.0259375 3.92910156 0.520625 3.47148438 0 3 C0 2.01 0 1.02 0 0 Z " fill="#112059" transform="translate(285,542)"/>
<path d="M0 0 C1.1725131 0.95117134 2.33787015 1.91117009 3.5 2.875 C4.47453125 3.67550781 4.47453125 3.67550781 5.46875 4.4921875 C5.9740625 4.98976563 6.479375 5.48734375 7 6 C7 6.66 7 7.32 7 8 C7.66 8 8.32 8 9 8 C8.67 8.99 8.34 9.98 8 11 C6.66072279 9.54712339 5.32873153 8.08752741 4 6.625 C3.2575 5.81289063 2.515 5.00078125 1.75 4.1640625 C0 2 0 2 0 0 Z " fill="#203061" transform="translate(482,362)"/>
<path d="M0 0 C1.32 0.33 2.64 0.66 4 1 C4 2.98 4 4.96 4 7 C4.66 7 5.32 7 6 7 C5.67 8.32 5.34 9.64 5 11 C4.16151196 9.54462432 3.32936066 8.08559627 2.5 6.625 C1.80390625 5.40683594 1.80390625 5.40683594 1.09375 4.1640625 C0 2 0 2 0 0 Z " fill="#071645" transform="translate(189,626)"/>
<path d="M0 0 C0.66 0.33 1.32 0.66 2 1 C-1.96 4.465 -1.96 4.465 -6 8 C-6.33 7.01 -6.66 6.02 -7 5 C-4.88437775 2.67281553 -2.94982021 1.14186589 0 0 Z " fill="#112050" transform="translate(952,550)"/>
<path d="M0 0 C3.36591866 1.44253657 5.51047079 3.33264727 8 6 C7.34 6.66 6.68 7.32 6 8 C4.99403703 7.0479279 3.99538437 6.08812654 3 5.125 C2.443125 4.59132813 1.88625 4.05765625 1.3125 3.5078125 C0 2 0 2 0 0 Z " fill="#263361" transform="translate(303,500)"/>
<path d="M0 0 C0.99 0.33 1.98 0.66 3 1 C1.68 2.65 0.36 4.3 -1 6 C-2.32 5.67 -3.64 5.34 -5 5 C-3.35 3.35 -1.7 1.7 0 0 Z " fill="#0F225D" transform="translate(515,284)"/>
<path d="M0 0 C0.99 0.33 1.98 0.66 3 1 C1.35 2.98 -0.3 4.96 -2 7 C-2.66 6.01 -3.32 5.02 -4 4 C-2.68 2.68 -1.36 1.36 0 0 Z " fill="#1D2E5C" transform="translate(897,544)"/>
<path d="M0 0 C0 0.66 0 1.32 0 2 C-6.96428571 5.34821429 -6.96428571 5.34821429 -11 4 C-9.73308493 3.32591692 -8.46129251 2.66099503 -7.1875 2 C-6.47980469 1.62875 -5.77210938 1.2575 -5.04296875 0.875 C-3 0 -3 0 0 0 Z " fill="#2E396A" transform="translate(228,536)"/>
<path d="M0 0 C0 3.97054597 -1.3139381 5.16471244 -4 8 C-6.140625 8.6484375 -6.140625 8.6484375 -8 9 C-7.04270084 7.87411986 -6.08412105 6.7493285 -5.125 5.625 C-4.59132813 4.99851562 -4.05765625 4.37203125 -3.5078125 3.7265625 C-2.38567993 2.44163349 -1.20628025 1.20628025 0 0 Z " fill="#152253" transform="translate(334,461)"/>
<path d="M0 0 C0.66 0.66 1.32 1.32 2 2 C-1.465 4.97 -1.465 4.97 -5 8 C-5.66 7.67 -6.32 7.34 -7 7 C-4.69 4.69 -2.38 2.38 0 0 Z " fill="#0F205A" transform="translate(513,809)"/>
<path d="M0 0 C0.33 0.99 0.66 1.98 1 3 C-1.64 4.98 -4.28 6.96 -7 9 C-6.67 7.68 -6.34 6.36 -6 5 C-5.01 4.67 -4.02 4.34 -3 4 C-3 3.34 -3 2.68 -3 2 C-2.01 2 -1.02 2 0 2 C0 1.34 0 0.68 0 0 Z " fill="#3D4873" transform="translate(949,706)"/>
<path d="M0 0 C0.99 0.33 1.98 0.66 3 1 C0.22719294 4.08089673 -2.06326356 5.68775452 -6 7 C-4.02 4.69 -2.04 2.38 0 0 Z " fill="#273563" transform="translate(793,539)"/>
<path d="M0 0 C0.66 0.66 1.32 1.32 2 2 C-1.465 4.97 -1.465 4.97 -5 8 C-5 5 -5 5 -2.5 2.3125 C-1.675 1.549375 -0.85 0.78625 0 0 Z " fill="#F2F4F9" transform="translate(758,369)"/>
<path d="M0 0 C0.598125 0.309375 1.19625 0.61875 1.8125 0.9375 C4.08956772 2.10209704 4.08956772 2.10209704 7 3 C6.67 4.32 6.34 5.64 6 7 C3.95880212 5.38405168 1.95927063 3.7143618 0 2 C0 1.34 0 0.68 0 0 Z " fill="#182758" transform="translate(300,710)"/>
<path d="M0 0 C0.8971875 0.5259375 0.8971875 0.5259375 1.8125 1.0625 C-0.75963134 2.68199011 -1.86419159 3.10658751 -4.9375 2.6875 C-5.68 2.48125 -6.4225 2.275 -7.1875 2.0625 C-4.72093412 -0.40406588 -3.34389711 -1.43309876 0 0 Z " fill="#FDC657" transform="translate(667.1875,705.9375)"/>
<path d="M0 0 C0.93423645 3.01031744 1.04449911 3.86650268 0 7 C0.99 7.33 1.98 7.66 3 8 C2.01 9.32 1.02 10.64 0 12 C-0.19573608 10.56359829 -0.38127816 9.12580496 -0.5625 7.6875 C-0.66691406 6.88699219 -0.77132812 6.08648438 -0.87890625 5.26171875 C-1 3 -1 3 0 0 Z " fill="#2F416C" transform="translate(932,577)"/>
<path d="M0 0 C0.99 0.66 1.98 1.32 3 2 C1.7260411 4.03833424 0.38938077 6.03852126 -1 8 C-1.66 8 -2.32 8 -3 8 C-1.125 2.25 -1.125 2.25 0 0 Z " fill="#1A2B5F" transform="translate(190,568)"/>
<path d="M0 0 C0.66 0.33 1.32 0.66 2 1 C0.35 2.65 -1.3 4.3 -3 6 C-3.66 5.34 -4.32 4.68 -5 4 C-3.35 2.68 -1.7 1.36 0 0 Z " fill="#142150" transform="translate(210,545)"/>
<path d="M0 0 C1.98 0 3.96 0 6 0 C4.515 1.98 4.515 1.98 3 4 C1.68 3.34 0.36 2.68 -1 2 C-0.67 1.34 -0.34 0.68 0 0 Z " fill="#081646" transform="translate(261,534)"/>
<path d="M0 0 C0.99 0.33 1.98 0.66 3 1 C2 4 2 4 -1 6 C-1.99 5.67 -2.98 5.34 -4 5 C-2.68 3.35 -1.36 1.7 0 0 Z " fill="#172459" transform="translate(730,283)"/>
<path d="M0 0 C2.15377564 2.62198774 3.40072174 4.64404172 4 8 C3.01 8.495 3.01 8.495 2 9 C0.14223235 5.86501708 -0.20140476 3.62528568 0 0 Z " fill="#2C3562" transform="translate(935,624)"/>
<path d="M0 0 C0.99 0 1.98 0 3 0 C3.99 1.98 4.98 3.96 6 6 C5.34 6.66 4.68 7.32 4 8 C2.68 5.36 1.36 2.72 0 0 Z " fill="#112054" transform="translate(563,268)"/>
<path d="M0 0 C4.19115285 0.58210456 5.37542083 1.28156562 9 4 C5.7 3.34 2.4 2.68 -1 2 C-0.67 1.34 -0.34 0.68 0 0 Z " fill="#132156" transform="translate(648,175)"/>
</svg>
